<svg id="Capa_1" enable-background="new 0 0 512 512" height="512" viewBox="0 0 512 512" width="512" xmlns="http://www.w3.org/2000/svg"><path d="m85.008 250h140c8.284 0 15-6.716 15-15v-10c0-31.763-17.524-59.495-43.4-74.083 8.339-9.645 13.4-22.197 13.4-35.917 0-30.327-24.673-55-55-55s-55 24.673-55 55c0 13.72 5.062 26.273 13.4 35.917-25.876 14.588-43.4 42.32-43.4 74.083v10c0 8.284 6.716 15 15 15zm70-160c13.785 0 25 11.215 25 25s-11.215 25-25 25-25-11.215-25-25 11.215-25 25-25zm0 80c28.643 0 52.242 22.006 54.775 50h-109.55c2.534-27.994 26.133-50 54.775-50z"/><path d="m265.008 115h60c8.284 0 15-6.716 15-15s-6.716-15-15-15h-60c-8.284 0-15 6.716-15 15s6.716 15 15 15z"/><path d="m265.008 175h60c8.284 0 15-6.716 15-15s-6.716-15-15-15h-60c-8.284 0-15 6.716-15 15s6.716 15 15 15z"/><path d="m491.758 134.766c0-.001-.001-.001 0 0l-14.144-14.144c-13.646-13.646-35.85-13.647-49.497 0l-28.109 28.109v-133.731c0-8.284-6.716-15-15-15h-360c-8.284 0-15 6.716-15 15v482c0 8.284 6.716 15 15 15h360c8.284 0 15-6.716 15-15v-220.99l63.464-63.464 28.286-28.285c13.645-13.646 13.645-35.85 0-49.495zm-208.598 215.665-21.213-21.212 106.066-106.067 21.213 21.213zm-37.727 4.699 11.815 11.815-21.662 9.846zm124.575 126.87h-330v-452h330v148.731l-139.881 139.881c-1.272 1.271-2.305 2.762-3.049 4.399l-4.085 8.989h-137.985c-8.284 0-15 6.716-15 15s6.716 15 15 15h124.348l-13.637 30h-110.711c-8.284 0-15 6.716-15 15s6.716 15 15 15h120.37.004c2.097 0 4.212-.439 6.203-1.345l77.782-35.355c1.638-.744 3.128-1.776 4.399-3.049l76.241-76.241v175.99zm40.432-258.848-21.214-21.213 21.214-21.214 21.213 21.214zm60.104-60.103-17.679 17.678-21.213-21.214 17.678-17.678c1.95-1.95 5.123-1.948 7.071 0l14.143 14.143c1.95 1.95 1.949 5.122 0 7.071z"/></svg>